<svg id="visual" viewBox="0 0 900 600" width="900" height="600" xmlns="http://www.w3.org/2000/svg" xmlns:xlink="http://www.w3.org/1999/xlink" version="1.1"><path d="M0 133L13.7 125C27.3 117 54.7 101 82 116C109.3 131 136.7 177 163.8 195C191 213 218 203 245.2 210C272.3 217 299.7 241 327 248C354.3 255 381.7 245 409 214C436.3 183 463.7 131 491 108C518.3 85 545.7 91 573 99C600.3 107 627.7 117 654.8 119C682 121 709 115 736.2 110C763.3 105 790.7 101 818 117C845.3 133 872.7 169 886.3 187L900 205L900 0L886.3 0C872.7 0 845.3 0 818 0C790.7 0 763.3 0 736.2 0C709 0 682 0 654.8 0C627.7 0 600.3 0 573 0C545.7 0 518.3 0 491 0C463.7 0 436.3 0 409 0C381.7 0 354.3 0 327 0C299.7 0 272.3 0 245.2 0C218 0 191 0 163.8 0C136.7 0 109.3 0 82 0C54.7 0 27.3 0 13.7 0L0 0Z" fill="#851590"></path><path d="M0 169L13.7 169C27.3 169 54.7 169 82 192C109.3 215 136.7 261 163.8 273C191 285 218 263 245.2 262C272.3 261 299.7 281 327 292C354.3 303 381.7 305 409 277C436.3 249 463.7 191 491 170C518.3 149 545.7 165 573 181C600.3 197 627.7 213 654.8 217C682 221 709 213 736.2 204C763.3 195 790.7 185 818 195C845.3 205 872.7 235 886.3 250L900 265L900 203L886.3 185C872.7 167 845.3 131 818 115C790.7 99 763.3 103 736.2 108C709 113 682 119 654.8 117C627.7 115 600.3 105 573 97C545.7 89 518.3 83 491 106C463.7 129 436.3 181 409 212C381.7 243 354.3 253 327 246C299.7 239 272.3 215 245.2 208C218 201 191 211 163.8 193C136.7 175 109.3 129 82 114C54.7 99 27.3 115 13.7 123L0 131Z" fill="#6d0976"></path><path d="M0 313L13.7 329C27.3 345 54.7 377 82 394C109.3 411 136.7 413 163.8 410C191 407 218 399 245.2 406C272.3 413 299.7 435 327 450C354.3 465 381.7 473 409 458C436.3 443 463.7 405 491 403C518.3 401 545.7 435 573 438C600.3 441 627.7 413 654.8 410C682 407 709 429 736.2 426C763.3 423 790.7 395 818 378C845.3 361 872.7 355 886.3 352L900 349L900 263L886.3 248C872.7 233 845.3 203 818 193C790.7 183 763.3 193 736.2 202C709 211 682 219 654.8 215C627.7 211 600.3 195 573 179C545.7 163 518.3 147 491 168C463.7 189 436.3 247 409 275C381.7 303 354.3 301 327 290C299.7 279 272.3 259 245.2 260C218 261 191 283 163.8 271C136.7 259 109.3 213 82 190C54.7 167 27.3 167 13.7 167L0 167Z" fill="#55005d"></path><path d="M0 469L13.7 471C27.3 473 54.7 477 82 489C109.3 501 136.7 521 163.8 519C191 517 218 493 245.2 488C272.3 483 299.7 497 327 512C354.3 527 381.7 543 409 541C436.3 539 463.7 519 491 518C518.3 517 545.7 535 573 542C600.3 549 627.7 545 654.8 537C682 529 709 517 736.2 510C763.3 503 790.7 501 818 502C845.3 503 872.7 507 886.3 509L900 511L900 347L886.3 350C872.7 353 845.3 359 818 376C790.7 393 763.3 421 736.2 424C709 427 682 405 654.8 408C627.7 411 600.3 439 573 436C545.7 433 518.3 399 491 401C463.7 403 436.3 441 409 456C381.7 471 354.3 463 327 448C299.7 433 272.3 411 245.2 404C218 397 191 405 163.8 408C136.7 411 109.3 409 82 392C54.7 375 27.3 343 13.7 327L0 311Z" fill="#490551"></path><path d="M0 601L13.7 601C27.3 601 54.7 601 82 601C109.3 601 136.7 601 163.8 601C191 601 218 601 245.2 601C272.3 601 299.7 601 327 601C354.3 601 381.7 601 409 601C436.3 601 463.7 601 491 601C518.3 601 545.7 601 573 601C600.3 601 627.7 601 654.8 601C682 601 709 601 736.2 601C763.3 601 790.7 601 818 601C845.3 601 872.7 601 886.3 601L900 601L900 509L886.3 507C872.7 505 845.3 501 818 500C790.7 499 763.3 501 736.2 508C709 515 682 527 654.8 535C627.7 543 600.3 547 573 540C545.7 533 518.3 515 491 516C463.7 517 436.3 537 409 539C381.7 541 354.3 525 327 510C299.7 495 272.3 481 245.2 486C218 491 191 515 163.8 517C136.7 519 109.3 499 82 487C54.7 475 27.3 471 13.7 469L0 467Z" fill="#3d0845"></path></svg>